<svg xmlns="http://www.w3.org/2000/svg" version="1.1" xmlns:xlink="http://www.w3.org/1999/xlink" xmlns:svgjs="http://svgjs.dev/svgjs" width="100%" height="100%" viewBox="0 0 1000 600"><rect width="1000" height="600" x="0" y="0" fill="#2f3c7e"/><g><rect width="333.3333333333333" height="333.3333333333333" rx="13.333333333333334" ry="13.333333333333334" y="269.0074231610298" fill="#fbeaeb" transform="matrix(0.5065134463491461,0,0,0.5065134463491461,0,79.32523558826898)" x="246.78521728515622"/><path d="M412.9211506614733 463.7270571413146L421.4431881724552 463.5147643919307L421.4431881724552 506.97412294437584L310.71735560094294 506.97412294437584L310.71735560094294 499.33158396655574L321.42297567701627 499.11929121717185L321.42297567701627 368.5289228104526L310.71735560094294 368.31663006106874L310.71735560094294 360.67409108324864L381.4714962170312 360.67409108324864L381.4714962170312 368.31663006106874L357.66438075040907 368.5289228104526L357.66438075040907 498.6643781827778Q384.95916281405226 489.0808769248764 412.46623762707924 474.64496996677184L412.46623762707924 474.64496996677184L412.9211506614733 463.7270571413146ZM513.5782414050639 489.2931696742603L516.1864094689231 495.6316246201508L484.09987677632927 510.67408229078075Q478.2163348648329 506.54953744560805 476.03275229974145 499.33158396655574L476.03275229974145 499.33158396655574Q468.1475930369112 504.12333459550644 460.20177870282845 507.1864156937597Q452.2256368331194 510.24949679201296 446.3117673859967 510.24949679201296L446.3117673859967 510.24949679201296Q437.36514437624703 510.24949679201296 431.6938952141345 503.91104184612254Q426.022646052022 497.57258690023207 426.022646052022 487.7464653573205L426.022646052022 487.7464653573205Q426.022646052022 483.3793002271376 426.9931271920627 478.253946706298Q427.99393586772953 473.1285931854583 429.51031264904304 470.06551208720504L429.51031264904304 470.06551208720504L475.7901320147313 462.6352658587689L476.2450450491254 456.3271384485047Q476.6696305478931 446.50101690559313 472.0901726683263 440.9207503503594Q467.51071478875957 435.34048379512575 457.22968021145397 435.34048379512575L457.22968021145397 435.34048379512575Q452.65022233188716 435.34048379512575 447.6461789535526 436.34129247079267Q442.6118080395917 437.3117736108333 439.1241414425707 438.8584779277731L439.1241414425707 438.8584779277731L435.6364748455496 446.25839662058297L429.72260539842694 444.0748140554915L439.7610196907224 412.6554871466757Q456.5928019633023 405.43753366762337 471.66558716955853 405.43753366762337L471.66558716955853 405.43753366762337Q487.16295787458256 405.43753366762337 496.9890794174941 413.62596828671633Q506.81520096040566 421.8144029058093 506.81520096040566 439.2830634265408L506.81520096040566 439.2830634265408L506.60290821102177 443.65022855672373L504.41932564593026 473.1285931854583L503.96441261153626 480.98342491266226Q503.96441261153626 484.92600454407744 504.6316183953142 487.20056971604765Q505.2684966434659 489.5054624236442 506.81520096040566 491.90133773811954L506.81520096040566 491.90133773811954L513.5782414050639 489.2931696742603ZM466.63121625559774 494.53983333760505Q470.1188828526188 494.53983333760505 474.69834073218556 491.90133773811954L474.69834073218556 491.90133773811954L474.48604798280167 487.32187985855273L474.69834073218556 482.53012922960204L475.3655465159635 470.06551208720504L458.56409177900986 474.00809171862016Q457.684593245848 476.8285525318633 457.684593245848 481.6506306964402L457.684593245848 481.6506306964402Q457.684593245848 488.20137839171457 460.29276130970726 491.3554420968467Q462.93125690919277 494.53983333760505 466.63121625559774 494.53983333760505L466.63121625559774 494.53983333760505Z " fill="#2f3c7e" transform="matrix(0.5065134463491461,0,0,0.5065134463491461,0,79.32523558826898)"/><path d="M777.136090489126 407.3499875012666Q777.136090489126 428.48572097771034 759.1028500000502 440.7571887759601Q741.04190868073 453.0286565742099 706.3327683845516 453.83198065129625L706.3327683845516 453.83198065129625L706.3327683845516 494.71840609196596L728.0779201263712 494.9123119036765L728.0779201263712 501.89292112525425L663.4518831662882 501.89292112525425L663.4518831662882 494.9123119036765L673.230276242546 494.71840609196596L673.230276242546 375.4386310597682L663.4518831662882 375.24472524805776L663.4518831662882 368.26411602648L701.9560372059433 368.651927649901L731.6790280581375 367.2668861376832Q746.028058124714 367.2668861376832 756.3050661453702 372.6408472050883Q766.5820741660264 378.0425091027377 771.845231912454 387.21148391361965Q777.136090489126 396.3804587245015 777.136090489126 407.3499875012666L777.136090489126 407.3499875012666ZM741.6513269461058 413.139461022337Q741.6513269461058 402.55774386899293 737.0529891255427 393.88738400250946Q732.4546513049795 385.217024136026 724.3937097038719 380.2308746920419Q716.3050672725198 375.24472524805776 706.3327683845516 375.24472524805776L706.3327683845516 375.24472524805776L706.3327683845516 446.0480473526321Q722.8978648706766 445.0508174638353 732.2607454932689 436.38045759735184Q741.6513269461058 427.71009773086837 741.6513269461058 413.139461022337L741.6513269461058 413.139461022337ZM783.9227938989932 501.89292112525425L783.9227938989932 496.10344760418377L791.291214743992 495.5217301690523L790.2939848551953 376.04804932514406L782.731658198486 377.6269966490724L780.7371984208924 371.8652239582463L817.6347043063747 360.6740885395264L820.4324881610548 365.4663321718L819.4352582722579 495.5217301690523L826.8036791172567 496.10344760418377L826.8036791172567 501.89292112525425L783.9227938989932 501.89292112525425ZM911.7621254766971 485.7433370927946L914.172097707956 491.532810613865L884.8369184791829 505.27242241506565Q879.4629574117778 501.5051095018332 877.4684976341841 494.9123119036765L877.4684976341841 494.9123119036765Q870.2939826008958 499.2890430822847 863.0086642466301 502.0868269369647Q855.7233458923645 504.8846107916447 850.3493848249595 504.8846107916447L850.3493848249595 504.8846107916447Q842.1499390726301 504.8846107916447 836.9698838169354 499.09513727057424Q831.7898285612407 493.3056637495038 831.7898285612407 484.3305947503324L831.7898285612407 484.3305947503324Q831.7898285612407 480.3416751951451 832.6762551290601 475.66023488384894Q833.5903825271239 470.9787945725527 834.9754240393418 468.18101071787277L834.9754240393418 468.18101071787277L877.2745918224737 461.39430730800547L877.6624034458946 455.63253461717943Q878.0502150693155 446.657465618008 873.8673897024178 441.5605128530465Q869.68456433552 436.46356008808493 860.3216837129276 436.46356008808493L860.3216837129276 436.46356008808493Q856.1111575157854 436.46356008808493 851.5405205254667 437.37768748614866Q846.9421827049036 438.26411405396806 843.7565872268026 439.67685639643025L843.7565872268026 439.67685639643025L840.5709917487018 446.43585897605317L835.1693298510522 444.4413991984595L844.3660054921784 415.7433390653065Q859.7122654475518 409.1505414671497 873.4795780789968 409.1505414671497L873.4795780789968 409.1505414671497Q887.6347023338628 409.1505414671497 896.6097713330344 416.6297656331259Q905.5848403322057 424.10898979910206 905.5848403322057 440.06466801985124L905.5848403322057 440.06466801985124L905.3909345204952 444.05358757503853L903.3964747429015 470.9787945725527L902.9809622892362 478.15330960584095Q902.9809622892362 481.7544175376073 903.590380554612 483.831979805934Q904.1997988199878 485.93724290450507 905.5848403322057 488.1256084938092L905.5848403322057 488.1256084938092L911.7621254766971 485.7433370927946ZM868.8812402584338 490.5355807250682Q872.0668357365346 490.5355807250682 876.2773619336767 488.1256084938092L876.2773619336767 488.1256084938092L876.0557552917219 483.9427831269114L876.2773619336767 479.56605194830314L876.8590793688084 468.18101071787277L861.512819413435 471.7821186496391Q860.7094953363487 474.3582958623642 860.7094953363487 478.76272787121684L860.7094953363487 478.76272787121684Q860.7094953363487 484.7461072039978 863.0917667373633 487.6269935494108Q865.5017389686222 490.5355807250682 868.8812402584338 490.5355807250682L868.8812402584338 490.5355807250682ZM914.559909331377 368.26411602648L1032.2330362094021 368.26411602648L1032.2330362094021 406.9621758778456L1024.449102910738 406.7682700661351L1024.061291287317 396.79597117816684Q1003.5072752460048 382.031428657925 989.9615692565146 375.05081943634724L989.9615692565146 375.05081943634724L989.9615692565146 494.71840609196596L1005.695640835309 494.9123119036765L1005.695640835309 501.89292112525425L941.0973047054704 501.89292112525425L941.0973047054704 494.9123119036765L956.8313762842647 494.71840609196596L956.8313762842647 375.05081943634724Q943.2856702947745 382.031428657925 922.7316542534622 396.79597117816684L922.7316542534622 396.79597117816684L922.3438426300411 406.7682700661351L914.559909331377 406.9621758778456L914.559909331377 368.26411602648ZM1075.1139214276654 409.1505414671497Q1092.6762478025876 409.1505414671497 1102.7316491812885 421.80982088882047Q1112.8147513902345 434.4691003104913 1112.620845578524 456.02034624060036L1112.620845578524 456.02034624060036L1057.5515950527438 457.82090020648354Q1058.9643373952058 469.59375306033496 1065.751040805073 475.77103820482637Q1072.510043384696 481.9483233493178 1083.701178803416 481.9483233493178L1083.701178803416 481.9483233493178Q1099.2413445704997 481.9483233493178 1109.0197376467577 473.36106597356735L1109.0197376467577 473.36106597356735L1112.620845578524 476.57436228191267Q1105.640236356946 489.92616245969236 1093.7565801821174 497.4053866256685Q1081.900624837533 504.8846107916447 1068.5211238295087 504.8846107916447L1068.5211238295087 504.8846107916447Q1050.3770800194557 504.8846107916447 1039.7122603753783 492.8070488051054Q1029.0474407313013 480.7571876488105 1029.0474407313013 460.2031716074982L1029.0474407313013 460.2031716074982Q1029.0474407313013 448.0425071302258 1033.922786854308 436.0757484646639Q1038.8258338075589 424.10898979910206 1046.3881604642684 416.1311506887275L1046.3881604642684 416.1311506887275Q1051.5682157199626 413.139461022337 1059.7676614722923 411.14500124474336Q1067.9394063943773 409.1505414671497 1075.1139214276654 409.1505414671497L1075.1139214276654 409.1505414671497ZM1057.1637834293228 451.64361506199214L1083.0917605380405 449.42754864244364Q1082.8978547263296 435.4663301992881 1079.1028409828527 427.29458527720305Q1075.307827239376 419.12284035511794 1068.3272180177983 417.5161922009453L1068.3272180177983 417.5161922009453Q1063.341068573814 422.72394828688425 1060.2662764166907 431.9760255884992Q1057.1637834293228 441.25580372035853 1057.1637834293228 451.03419679661624L1057.1637834293228 451.03419679661624L1057.1637834293228 451.64361506199214ZM1121.789820389406 368.26411602648L1218.9089312261185 368.26411602648L1218.9089312261185 407.9594057666424L1211.1249979274544 407.7654999549319L1210.7371863040335 397.79320106696366Q1186.9975747846202 382.83475273501136 1165.0585172310903 373.85968373583995L1165.0585172310903 373.85968373583995L1165.0585172310903 434.0812886870703L1202.371535570238 434.0812886870703L1202.371535570238 441.44970953206905L1165.0585172310903 441.44970953206905L1165.0585172310903 494.71840609196596L1186.4158573494888 494.9123119036765L1186.4158573494888 501.89292112525425L1121.789820389406 501.89292112525425L1121.789820389406 494.9123119036765L1131.5682134656636 494.71840609196596L1131.5682134656636 375.4386310597682L1121.789820389406 375.24472524805776L1121.789820389406 368.26411602648ZM1256.0003429233116 409.1505414671497Q1275.944940699248 409.1505414671497 1288.133306006765 420.92339432100107Q1300.2939704840373 432.6962471748525 1300.2939704840373 454.41369808642776L1300.2939704840373 454.41369808642776Q1300.2939704840373 463.8042795392645 1296.9975716849585 473.7765784272327Q1293.7011728858806 483.74887731520096 1287.3299819296785 491.3112039719102L1287.3299819296785 491.3112039719102Q1280.9310901432323 497.5161899466459 1272.4546360884592 501.2004003691453Q1263.9781820336862 504.8846107916447 1254.6153014110937 504.8846107916447L1254.6153014110937 504.8846107916447Q1234.6707036351572 504.8846107916447 1222.5100391578849 493.1117579377933Q1210.3493746806125 481.33890508394194 1210.3493746806125 459.62145417236667L1210.3493746806125 459.62145417236667Q1210.3493746806125 450.42477853124046 1213.7288759704238 440.4524796432722Q1217.1083772602356 430.480180755304 1223.5072690466818 422.9178540985947L1223.5072690466818 422.9178540985947Q1229.8784600028835 416.7405689541033 1238.3549140576565 412.94555521062654Q1246.8313681124296 409.1505414671497 1256.0003429233116 409.1505414671497L1256.0003429233116 409.1505414671497ZM1239.0474348137654 450.0369669078194Q1239.0474348137654 468.98433479495907 1246.5266589797416 478.34721541755147Q1254.0058831457177 487.73779687038825 1268.576519854249 489.5383508362714L1268.576519854249 489.5383508362714Q1269.9615613664669 483.55497150349044 1270.7648854435533 476.1588498282473Q1271.5682095206398 468.7904289832486 1271.5682095206398 463.99818535097495L1271.5682095206398 463.99818535097495Q1271.5682095206398 444.85691165212484 1264.0889853546637 435.57713352026553Q1256.6097611886876 426.29735538840623 1242.2607311221109 424.49680142252305L1242.2607311221109 424.49680142252305Q1240.8479887796489 430.70178739725884 1239.9615622118295 438.0702082422576Q1239.0474348137654 445.43862908725634 1239.0474348137654 450.0369669078194L1239.0474348137654 450.0369669078194ZM1346.9698694457775 434.4691003104913L1342.9809498905902 439.4552497544754L1342.1776258135037 495.5217301690523L1359.9338580001363 496.10344760418377L1359.9338580001363 501.89292112525425L1306.665161440239 501.89292112525425L1306.665161440239 496.10344760418377L1314.0612831154822 495.5217301690523L1313.4518648501062 424.10898979910206L1305.8618373631525 425.9095437649852L1303.867377585559 419.92616443220425L1335.3909224036365 410.14777135594653L1342.1776258135037 431.4774106441008Q1348.7427225814163 418.1256104663211 1356.5266558800804 410.75718962132237L1356.5266558800804 410.75718962132237Q1360.9310878889328 409.1505414671497 1367.1083730334244 409.1505414671497L1367.1083730334244 409.1505414671497Q1375.47402376722 409.1505414671497 1382.8701454424631 412.1422311335402L1382.8701454424631 412.1422311335402L1376.4712536560169 438.0702082422576Q1370.6817801349462 436.87907254175025 1361.7067111357746 435.8818426529534Q1352.7316421366036 434.8846127641566 1346.9698694457775 434.4691003104913L1346.9698694457775 434.4691003104913ZM1547.99479452907 494.71840609196596L1555.7787278277342 494.9123119036765L1555.7787278277342 501.89292112525425L1500.543272320488 501.89292112525425L1500.543272320488 494.9123119036765L1511.2911944552984 494.71840609196596L1501.9283138327055 392.3915391693142L1463.4241597930509 479.56605194830314L1457.2468746485592 479.56605194830314L1415.9726375844684 391.8098217341827L1412.1776238409916 494.71840609196596L1422.953246806046 494.9123119036765L1422.953246806046 501.89292112525425L1379.2690375106968 501.89292112525425L1379.2690375106968 494.9123119036765L1387.0529708093609 494.71840609196596L1406.1942445082109 375.4386310597682L1395.224715731446 375.24472524805776L1395.224715731446 368.26411602648L1441.0972906160996 368.26411602648L1473.2025528693084 433.47187042169446L1500.931083943909 368.26411602648L1542.2053210079998 368.26411602648L1542.2053210079998 375.24472524805776L1531.6513046849 375.4386310597682L1547.99479452907 494.71840609196596ZM1606.637452156372 409.1505414671497Q1624.1997785312942 409.1505414671497 1634.2551799099951 421.80982088882047Q1644.3382821189412 434.4691003104913 1644.1443763072307 456.02034624060036L1644.1443763072307 456.02034624060036L1589.0751257814504 457.82090020648354Q1590.4878681239124 469.59375306033496 1597.2745715337796 475.77103820482637Q1604.0335741134027 481.9483233493178 1615.2247095321227 481.9483233493178L1615.2247095321227 481.9483233493178Q1630.7648752992063 481.9483233493178 1640.5432683754643 473.36106597356735L1640.5432683754643 473.36106597356735L1644.1443763072307 476.57436228191267Q1637.1637670856526 489.92616245969236 1625.280110910824 497.4053866256685Q1613.4241555662393 504.8846107916447 1600.0446545582154 504.8846107916447L1600.0446545582154 504.8846107916447Q1581.9006107481623 504.8846107916447 1571.235791104085 492.8070488051054Q1560.570971460008 480.7571876488105 1560.570971460008 460.2031716074982L1560.570971460008 460.2031716074982Q1560.570971460008 448.0425071302258 1565.4463175830142 436.0757484646639Q1570.3493645362655 424.10898979910206 1577.9116911929746 416.1311506887275L1577.9116911929746 416.1311506887275Q1583.0917464486693 413.139461022337 1591.291192200999 411.14500124474336Q1599.462937123084 409.1505414671497 1606.637452156372 409.1505414671497L1606.637452156372 409.1505414671497ZM1588.6873141580295 451.64361506199214L1614.6152912667467 449.42754864244364Q1614.4213854550362 435.4663301992881 1610.6263717115594 427.29458527720305Q1606.8313579680826 419.12284035511794 1599.850748746505 417.5161922009453L1599.850748746505 417.5161922009453Q1594.8645993025207 422.72394828688425 1591.7898071453974 431.9760255884992Q1588.6873141580295 441.25580372035853 1588.6873141580295 451.03419679661624L1588.6873141580295 451.03419679661624L1588.6873141580295 451.64361506199214ZM1648.133295862418 510.67408431271514L1649.1305257512145 503.08405682576154L1727.4961745124983 501.5051095018332L1725.5017147349045 510.67408431271514L1648.133295862418 510.67408431271514Z " fill="#fbeaeb" transform="matrix(0.5065134463491461,0,0,0.5065134463491461,0,79.32523558826898)"/></g></svg>